<svg width="125" height="29" viewBox="0 0 125 29" fill="none" xmlns="http://www.w3.org/2000/svg">
<path d="M58.7748 0.203023H53.7481L53.5781 2.71017H46.4131L46.3095 0.136719H40.9927L41.2621 2.71017H39.103L39.2688 7.39293H46.7612L46.8275 9.07541H39.4387L40.0479 25.1667H57.602L58.8867 9.07541H51.8915V7.40536H59.4834L59.989 2.7226H58.5054L58.7748 0.203023ZM53.9843 22.4979H43.7568L43.7941 21.1138H54.0174L53.9843 22.4979ZM54.0506 18.7683H43.7941V17.3635H54.0837L54.0506 18.7683ZM54.1542 12.9294L54.1169 14.8729H43.8272V12.9459L54.1542 12.9294Z" fill="white"/>
<path d="M14.1726 8.31294H21.2175L21.5904 3.00028H14.5041L14.6699 0H7.89854L8.1679 3.00028H0L0.708631 8.31294H8.60717L8.84338 10.4886H1.18105L3.66747 28.1629H12.9584L13.7872 14.9393L22.7301 14.9061L22.6969 25.1626L16.5347 25.1294L16.7046 28.2623L25.5148 28.2292L27.8438 10.4886H14.04L14.1726 8.31294Z" fill="white"/>
<path d="M22.6431 8.34186L27.9764 8.37915L28.8218 3.00019L23.0492 2.96704L22.6431 8.34186Z" fill="white"/>
<path d="M38.0547 7.93164H31.2378L31.9464 13.1448H33.8693L35.1539 26.2027H33.7367L34.006 28.5441H57.8632L58 26.2027H38.5272L38.0547 7.93164Z" fill="white"/>
<path d="M64.8916 28.9751H68.1654L70.9336 24.5203H66.4788L64.8916 28.9751Z" fill="white"/>
<path d="M37.7522 0.513916H30.4629L31.2047 6.34872H37.7854L37.7522 0.513916Z" fill="#F77F79"/>
<path d="M79.7437 24.5203L82.9802 28.9751H85.7815L83.6888 24.5203H79.7437Z" fill="white"/>
<path d="M63.0724 23.795H87.7087L88.1438 20.8279H62.6663L63.0724 23.795Z" fill="#58B2D8" stroke="#58B2D8" stroke-width="1.7" stroke-miterlimit="10"/>
<path d="M64.4563 19.7381H86.4198L88.6493 0.675537H62.26L64.4563 19.7381ZM68.3352 5.78928H82.5782L82.6445 7.47176H68.2689L68.3352 5.78928ZM68.1984 10.2731H82.7026L82.7357 12.0882H68.1321L68.1984 10.2731ZM68.099 14.728H82.8476L82.9139 16.6715H68.0327L68.099 14.728Z" fill="white"/>
<path d="M108.599 17.3885H105.404L106.937 25.4818H104.164L102.25 18.3292L101.943 29.0001H99.175L98.7606 18.4659L95.8598 29.0001H93.1247L95.7272 17.3968H92.4783L91.9976 12.1877H98.425L98.1597 7.39722H102.718L102.528 12.1877H109.088L108.599 17.3885Z" fill="white"/>
<path d="M122.133 28.9297L109.552 28.8965L107.675 8.84766H124.093L122.133 28.9297ZM120.219 12.2582H112.009V16.0707H120.239L120.219 12.2582ZM120.115 23.3062H111.864V26.1159H120.152L120.115 23.3062Z" fill="white"/>
<path d="M120.856 19.5867L115.886 14.6169L110.916 19.5867L115.886 24.5564L120.856 19.5867Z" fill="#FFF657"/>
<path d="M107.061 4.09006H105.209L104.127 7.63736H100.497L98.9514 4.09006H97.5631L97.215 7.44673H93.2409L91.2683 0.144937H97.9485L97.7537 1.75697H107.177L107.061 4.09006ZM123.492 3.93259H120.326L117.508 11.8767H113.799L114.438 3.93259H112.813L111.475 7.42187H107.14L107.447 0.0910645H114.322L113.663 1.81084H124.321L123.492 3.93259Z" fill="white"/>
<path d="M10.0741 25.3076H6.55996L5.85547 14.761H9.37376L10.0741 25.3076Z" fill="#1169BE"/>
</svg>
