<svg class="svg-fill--wt" id="aba7dd3b-3329-4a67-893f-5df531f8f14d" data-name="twitter" xmlns="http://www.w3.org/2000/svg" viewBox="0 0 255.18 209.95">
  <path id="b36c0720-232d-4405-a088-5f8941535fcc" data-name="logo" d="M536.62,131.26c-1-3.54-5.46-6.79-9.23-5.24a69.22,69.22,0,0,1-9.64,3.17q-.81-1.87-1.74-3.69a108,108,0,0,0,14.2-7.57c8.11-5.18.6-18.17-7.57-13a95.31,95.31,0,0,1-14.92,7.87c-1.54-1.94-3.16-3.84-4.84-5.7-6.7-7.44-13.95-14.24-24.06-16.41-19.75-4.23-38.62,7.18-50.5,22.26-9.4,11.94-13.39,27-10.79,41.3a378.7,378.7,0,0,1-44.93-11.38c-20.88-6.48-37.51-20.71-52.37-36.25a7.08,7.08,0,0,0-3.55-2.11c-1.09-1.75-2.24-3.46-3.5-5.11a2.71,2.71,0,0,0-1.47-1,2.57,2.57,0,0,0-4.13,1.48,2.59,2.59,0,0,0-.6,1.45c-.36,3.82-.68,7.64-.76,11.44a5.94,5.94,0,0,0-.25,1.9,10.19,10.19,0,0,0,.25,1.72c0,1,.07,2,.14,3,.08,7.86.27,15.73,2,23.43a79.89,79.89,0,0,0,10.7,24.9c1.07,1.69,2.21,3.33,3.38,4.94A48.87,48.87,0,0,1,307,170.22l-.31-.08c-2.86-1.64-5.81-3.16-8.8-4.64a2.7,2.7,0,0,0-1.54-.3l-.06,0c-2.23-1.59-4.39,1.39-3.42,3.42l5.38,11.25a7.52,7.52,0,0,0,1,2l.26.55a2.09,2.09,0,0,0,1.43,1.23,110.65,110.65,0,0,0,43.71,34.12c-.4.18-.81.34-1.22.51a57.46,57.46,0,0,1-23.95-5l-.25-.32a2.58,2.58,0,0,0-2.39-1,2.4,2.4,0,0,0-.26-.18h0c-1.75-2.15-4.61.2-4.06,2.48a2.27,2.27,0,0,0,.07,2.29q4,7,8.45,13.68a6.89,6.89,0,0,0,1.83,2.68l.48.7a2.55,2.55,0,0,0,1.24,1c6.35,10,18.25,16.2,29.06,20.45a69.32,69.32,0,0,1-6.46,5.14c-6.89,3-14.23,5.13-21.38,7.31a151.61,151.61,0,0,1-25,5.86l-.16,0c-2.45.31-4.91.52-7.39.6-1.27-.14-2.55-.31-3.82-.52a2.53,2.53,0,0,0-1,0l-.36-.14a1.94,1.94,0,0,0-2.34.49l-.47,0c-2.62-1.34-4.91,2.76-2.28,4.44,4.58,2.93,9.19,6.58,14.39,8.37l.16.05a7.38,7.38,0,0,0,4.46,1.68l1.08,0a9,9,0,0,0,.83.35,190.29,190.29,0,0,0,94.76,8.72c15.25-2.42,31.36-6.41,45-13.83,6.91-3.76,12.39-9.15,18-14.57,5-4.82,10.61-8.61,16.11-12.8,6.55-5,12.15-10.66,15.62-18.26,1.34-2.92,2.41-6,3.47-9,7.44-11.5,13.32-24.34,18.23-36.56,6.1-15.18,9.59-32.38,6.93-48.72a70.27,70.27,0,0,0,9.46-3.12C535.12,139,537.78,135.51,536.62,131.26Zm-203.23,56,1.56-.12c.34.34.69.67,1,1Z" transform="translate(-281.71 -89.84)" style="fill:#fff;stroke:#000;stroke-width:8px;"/>
</svg>
