<svg width="358" height="84" viewBox="0 0 358 84" fill="none" xmlns="http://www.w3.org/2000/svg">
<path d="M169.25 0.584415H154.775L154.286 7.8013H133.689L133.391 0.393555H118.045L118.82 7.8013H112.603L113.08 21.2808H134.656L134.847 26.1238H113.57L115.324 72.4431H165.849L169.549 26.1238H149.429V21.3166H171.243L172.699 7.83708H168.427L169.25 0.584415ZM155.456 64.761H126.004L126.111 60.7768H155.551L155.456 64.761ZM155.646 54.0251H126.111V49.9813H155.73L155.646 54.0251ZM155.945 37.2176L155.837 42.8121H126.207V37.2653L155.945 37.2176Z" fill="black"/>
<path d="M40.812 23.929H61.0987L62.1727 8.6364H41.7905L42.2679 0H22.7449L23.5206 8.6364H0L2.0406 23.929H24.7855L25.4657 30.1916H3.401L10.561 81.0677H37.3155L39.7022 43.0031L65.4543 42.9076L65.3589 72.4313L47.614 72.3358L48.1033 81.3539L73.4735 81.2585L80.1801 30.1916H40.4301L40.812 23.929Z" fill="black"/>
<path d="M65.2037 24.0123L80.5619 24.1197L82.9963 8.6362L66.3732 8.54077L65.2037 24.0123Z" fill="black"/>
<path d="M109.584 22.8315H89.9534L91.994 37.8379H97.531L101.23 75.4253H97.1492L97.9248 82.1651H166.625L167.019 75.4253H110.944L109.584 22.8315Z" fill="black"/>
<path d="M186.864 83.4057H196.291L204.263 70.5823H191.434L186.864 83.4057Z" fill="black"/>
<path d="M108.713 1.47925H87.7219L89.858 18.2749H108.808L108.713 1.47925Z" fill="#F77F79"/>
<path d="M229.633 70.5823L238.953 83.4057H247.02L240.994 70.5823H229.633Z" fill="black"/>
<path d="M181.625 68.4948H252.569L253.822 59.9539H180.456L181.625 68.4948Z" fill="#58B2D8" stroke="#58B2D8" stroke-width="1.7" stroke-miterlimit="10"/>
<path d="M185.563 56.8165H248.81L255.23 1.94434H179.286L185.563 56.8165ZM196.733 16.6644H237.748L237.939 21.5075H196.59L196.733 16.6644ZM196.339 29.5713H238.106L238.201 34.7961H196.196L196.339 29.5713ZM196.053 42.3947H238.523L238.714 47.9892H195.909L196.053 42.3947Z" fill="black"/>
<path d="M312.725 50.0529H303.524L307.94 73.3497H299.956L294.443 52.7608L293.584 83.4653H285.612L284.419 53.1425L276.066 83.4653H268.19L275.684 50.0649H266.328L264.896 35.0943H283.417L282.653 21.3047H295.78L295.231 35.0943H314.121L312.725 50.0529Z" fill="black"/>
<path d="M351.699 83.2744L315.47 83.179L310.064 25.4678H357.403L351.699 83.2744ZM346.186 35.2851H322.546V46.2596H346.246L346.186 35.2851ZM345.888 67.0871H322.128V75.1748H345.995L345.888 67.0871Z" fill="black"/>
<path d="M348.014 56.3856L333.703 42.0801L319.392 56.3857L333.703 70.6912L348.014 56.3856Z" fill="#FFF657"/>
<path d="M308.298 11.7736H302.963L299.849 21.9846H289.383L284.932 11.7736H280.935L279.932 21.4359H268.476L262.82 0.417451H282.056L281.495 5.05773H308.632L308.298 11.7736ZM355.554 11.2607H346.437L338.31 34.1281H327.63L329.539 11.3203H324.861L320.971 21.424H308.477L309.36 0.322021H329.157L327.26 5.27245H358L355.554 11.2607Z" fill="black"/>
<path d="M29.0099 72.8486H18.8905L16.8618 42.49H26.9932L29.0099 72.8486Z" fill="#1169BE"/>
</svg>
